<svg width="769" height="205" viewBox="0 0 769 205" fill="none" xmlns="http://www.w3.org/2000/svg">
<rect width="769" height="205" fill="white"/>
<path d="M620 161.16V33H646.531L683.999 130.55H685.08L722.728 33H749.259V161.16H729.899V88.67L730.971 65.94H729.899L692.422 161.17H676.828L639.36 65.94H638.288L639.36 88.67V161.17H620V161.16Z" fill="black"/>
<path d="M536 161.16V33H555.72V142.55H610.935V161.17H536V161.16Z" fill="black"/>
<path d="M377.557 153.03C368.594 153.03 360.591 150.94 353.53 146.77C346.48 142.59 340.921 136.87 336.855 129.59C332.909 122.31 330.936 114.02 330.936 104.71C330.936 96 332.849 87.94 336.674 80.54C340.5 73.14 345.818 67.23 352.629 62.82C359.56 58.29 367.512 56.02 376.476 56.02C385.92 56.02 393.923 58.05 400.503 62.11C407.193 66.17 412.271 71.72 415.736 78.76C419.201 85.8 420.934 93.74 420.934 102.57C420.934 103.88 420.874 105.08 420.754 106.15C420.754 107.22 420.694 108.06 420.574 108.66H349.935C350.416 113.67 351.667 118.03 353.701 121.73C356.325 126.38 359.8 129.9 364.097 132.29C368.403 134.68 373.06 135.87 378.078 135.87C384.178 135.87 389.255 134.5 393.312 131.75C397.498 128.89 400.783 125.37 403.177 121.19L419.131 128.89C415.185 136.05 409.807 141.9 402.997 146.43C396.186 150.85 387.693 153.05 377.537 153.05L377.557 153.03ZM351.027 94.14H401.765C401.644 91.87 401.044 89.49 399.972 86.98C398.9 84.35 397.348 81.97 395.315 79.82C393.282 77.67 390.718 75.94 387.603 74.63C384.498 73.2 380.852 72.48 376.666 72.48C371.408 72.48 366.741 73.85 362.684 76.6C358.618 79.23 355.453 82.92 353.18 87.7C352.228 89.73 351.507 91.88 351.027 94.14Z" fill="black"/>
<path d="M268.359 58.88H284.314V33.1H303.674V58.88H326.088V75.71H303.674V119.56C303.674 124.09 304.575 127.55 306.358 129.94C308.271 132.33 311.436 133.52 315.862 133.52C318.016 133.52 319.929 133.22 321.601 132.63C323.274 131.91 324.946 131.08 326.619 130.12V148.92C324.586 149.75 322.432 150.41 320.169 150.89C317.895 151.37 315.211 151.61 312.107 151.61C303.623 151.61 296.863 149.16 291.845 144.27C286.828 139.26 284.314 132.4 284.314 123.69V75.72H268.359V58.89V58.88Z" fill="black"/>
<path d="M217.12 153.03C207.676 153.03 199.373 150.88 192.202 146.59C185.031 142.3 179.412 136.51 175.346 129.23C171.28 121.83 169.247 113.6 169.247 104.53C169.247 95.46 171.28 87.29 175.346 80.01C179.412 72.61 185.031 66.76 192.202 62.47C199.373 58.17 207.676 56.03 217.12 56.03C226.565 56.03 234.687 58.24 241.858 62.65C249.029 66.95 254.648 72.73 258.714 80.01C262.781 87.29 264.814 95.46 264.814 104.53C264.814 113.6 262.781 121.83 258.714 129.23C254.648 136.51 249.029 142.3 241.858 146.59C234.687 150.88 226.445 153.03 217.12 153.03ZM217.12 135.31C222.138 135.31 226.805 134.12 231.102 131.73C235.408 129.22 238.874 125.7 241.498 121.17C244.242 116.52 245.624 110.97 245.624 104.52C245.624 98.07 244.252 92.59 241.498 88.05C238.874 83.4 235.398 79.88 231.102 77.49C226.795 74.98 222.138 73.73 217.12 73.73C212.103 73.73 207.375 74.98 202.959 77.49C198.652 79.88 195.126 83.4 192.382 88.05C189.758 92.58 188.436 98.07 188.436 104.52C188.436 110.97 189.748 116.51 192.382 121.17C195.126 125.7 198.712 129.23 203.139 131.73C207.566 134.12 212.223 135.31 217.12 135.31Z" fill="black"/>
<path d="M54.55 150.16V22H77.8559L135.945 116.15H137.017L135.945 91.45V22H155.485V150.16H135.044L74.0901 51.17H73.0184L74.0901 75.87V150.16H54.55Z" fill="black"/>
<path d="M459.84 97.7C464.25 100.09 468.91 101.28 473.8 101.28C473.878 101.28 473.957 101.28 474.035 101.279L473.957 119C473.905 119 473.853 119 473.8 119C464.37 119 456.08 116.85 448.92 112.56C441.76 108.26 436.15 102.48 432.09 95.2C428.03 87.8 426 79.57 426 70.5C426 61.43 428.03 53.26 432.09 45.98C436.15 38.58 441.76 32.73 448.92 28.44C456.08 24.14 464.37 22 473.8 22C473.995 22 474.189 22.0009 474.383 22.0028L474.305 39.7043C474.137 39.7014 473.969 39.7 473.8 39.7C468.79 39.7 464.07 40.95 459.66 43.46C455.36 45.85 451.84 49.37 449.1 54.02C446.47 58.55 445.16 64.04 445.16 70.49C445.16 76.94 446.47 82.48 449.1 87.14C451.84 91.67 455.42 95.2 459.84 97.7Z" fill="black"/>
<path d="M473.916 118.981L473.994 101.279C483.176 101.369 491.099 103.577 498.111 107.896C505.271 112.196 510.881 117.976 514.941 125.256C519.001 132.536 521.031 140.706 521.031 149.776C521.031 158.846 519.001 167.076 514.941 174.476C510.881 181.756 505.271 187.546 498.111 191.836C490.991 196.102 482.814 198.252 473.568 198.276L473.646 180.555C478.567 180.519 483.148 179.329 487.371 176.976C491.671 174.466 495.131 170.946 497.751 166.416C500.491 161.766 501.871 156.216 501.871 149.766C501.871 143.316 500.501 137.836 497.751 133.296C495.121 128.646 491.661 125.126 487.371 122.736C483.216 120.311 478.734 119.062 473.916 118.981Z" fill="black"/>
</svg>
