<svg xmlns="http://www.w3.org/2000/svg" width="499" height="106" viewBox="0 0 499 106">
<g>
<path d="M 43.45 61.84 C42.05,62.48 40.76,63.00 40.58,63.00 C40.40,63.00 39.97,61.20 39.62,59.00 C38.91,54.60 39.76,47.15 41.17,45.35 C41.67,44.72 41.80,41.12 41.47,37.35 C40.91,31.02 40.99,30.65 42.43,32.44 C43.30,33.51 44.00,36.26 44.00,38.58 C44.00,41.36 44.50,42.98 45.47,43.35 C46.28,43.66 47.18,43.52 47.47,43.04 C47.77,42.57 49.16,42.30 50.56,42.46 C52.52,42.67 52.97,42.38 52.51,41.17 C52.00,39.83 52.17,39.84 53.74,41.27 C55.46,42.82 55.57,42.80 55.57,40.96 C55.57,39.88 55.19,39.00 54.73,39.00 C54.26,39.00 54.16,38.55 54.50,38.00 C54.84,37.45 54.78,36.45 54.36,35.77 C53.94,35.09 53.54,33.80 53.47,32.91 C53.24,29.75 56.76,32.15 62.06,38.76 C65.29,42.80 66.59,45.04 65.42,44.56 C60.46,42.53 60.05,42.67 58.06,47.11 C56.66,50.24 56.42,51.80 57.18,52.72 C59.50,55.51 56.36,53.78 52.79,50.30 L 49.00 46.59 L 49.00 53.40 C49.00,59.05 48.74,60.12 47.50,59.64 C46.67,59.32 46.00,59.43 46.00,59.87 C46.00,60.32 44.85,61.20 43.45,61.84 ZM 267.00 32.30 C267.00,33.14 252.31,32.97 251.45,32.12 C250.20,30.87 251.26,28.16 253.21,27.66 C254.42,27.34 255.09,26.75 254.69,26.35 C253.20,24.87 247.15,23.33 245.79,24.10 C245.00,24.54 243.19,25.11 241.76,25.37 C239.30,25.81 238.00,24.62 238.00,21.92 C238.00,21.39 248.31,21.00 262.55,21.00 L 287.10 21.00 L 286.50 32.50 L 280.25 32.80 C273.52,33.12 272.37,32.18 276.75,29.92 C281.76,27.34 281.92,25.00 277.09,25.00 C275.55,25.00 272.84,24.49 271.06,23.87 C267.27,22.55 260.00,24.21 260.00,26.38 C260.00,27.10 261.58,28.53 263.50,29.57 C265.42,30.61 267.00,31.83 267.00,32.30 ZM 36.93 78.88 C37.76,80.41 37.57,80.88 35.98,81.30 C34.04,81.80 34.00,81.20 34.00,51.41 L 34.00 21.00 L 40.85 21.00 C46.33,21.00 48.04,21.38 49.43,22.92 C51.08,24.75 51.07,24.89 49.21,25.89 C48.14,26.46 46.99,26.66 46.66,26.33 C46.33,26.00 44.42,25.55 42.41,25.33 C38.79,24.93 38.77,24.96 39.24,28.21 C39.54,30.19 39.13,32.40 38.22,33.79 C36.97,35.70 36.83,38.50 37.41,50.47 C37.86,59.68 37.72,67.04 37.01,70.92 C36.26,75.06 36.24,77.58 36.93,78.88 ZM 92.00 51.00 C92.00,70.33 91.64,81.00 91.00,81.00 C90.45,81.00 90.00,80.35 90.00,79.56 C90.00,78.76 89.03,76.47 87.85,74.47 C85.73,70.88 85.72,70.70 87.35,63.14 C89.20,54.53 89.52,45.44 88.00,44.50 C86.44,43.54 86.80,33.65 88.47,31.44 C89.28,30.37 89.95,27.81 89.97,25.75 L 90.00 22.00 L 85.50 22.00 C83.03,22.00 81.00,22.40 81.00,22.88 C81.00,23.37 80.10,24.00 79.00,24.29 C77.52,24.68 77.00,24.32 77.00,22.91 C77.00,21.20 77.79,21.00 84.50,21.00 L 92.00 21.00 ZM 171.00 51.62 C171.00,55.06 170.55,58.16 170.00,58.50 C168.88,59.19 168.76,58.43 168.97,51.99 C169.09,48.41 168.50,46.61 166.13,43.34 C164.48,41.06 163.39,38.94 163.71,38.62 C165.07,37.26 158.66,30.08 154.67,28.49 C152.37,27.58 149.08,25.76 147.35,24.44 C144.63,22.38 144.04,22.25 142.99,23.52 C142.32,24.32 141.41,24.76 140.97,24.48 C140.53,24.21 139.94,24.55 139.66,25.24 C139.26,26.24 139.14,26.24 139.08,25.25 C139.03,24.47 137.49,24.00 135.00,24.00 C132.80,24.00 131.00,23.55 131.00,23.00 C131.00,22.45 130.21,21.99 129.25,21.98 C127.75,21.97 127.72,21.83 129.00,21.00 C130.83,19.82 143.00,19.67 143.00,20.83 C143.00,21.28 144.27,21.47 145.82,21.24 C150.07,20.62 157.03,24.39 161.00,29.46 C162.93,31.91 165.09,33.94 165.81,33.96 C166.53,33.98 166.84,34.46 166.49,35.02 C166.14,35.58 165.37,35.73 164.78,35.36 C164.14,34.97 163.98,35.15 164.38,35.80 C164.76,36.41 165.67,36.68 166.42,36.39 C168.43,35.62 171.00,44.17 171.00,51.62 ZM 207.00 76.03 C207.00,76.93 203.06,76.93 202.54,76.03 C201.49,74.21 201.04,69.09 201.88,68.57 C202.49,68.20 202.65,65.20 202.29,60.98 C201.88,55.98 202.04,54.00 202.88,54.00 C203.52,54.00 204.54,55.24 205.14,56.75 L 206.23 59.50 L 207.37 56.40 C208.00,54.66 209.05,53.49 209.75,53.73 C210.65,54.05 211.00,57.27 211.00,65.20 C211.00,75.74 210.91,76.21 209.00,75.71 C207.90,75.42 207.00,75.57 207.00,76.03 ZM 230.00 27.00 C230.00,32.26 229.76,33.00 228.07,33.00 C227.01,33.00 225.41,32.27 224.52,31.38 C223.03,29.89 223.04,29.62 224.70,28.01 C225.69,27.04 226.84,26.45 227.25,26.69 C227.66,26.92 228.00,26.36 228.00,25.44 C228.00,23.99 227.18,23.85 221.75,24.41 C217.09,24.88 214.77,24.66 212.64,23.52 C208.99,21.58 202.27,21.57 197.65,23.50 C193.07,25.41 186.31,25.41 182.64,23.49 C181.06,22.67 178.71,22.20 177.40,22.43 C176.10,22.67 174.77,22.44 174.46,21.93 C174.11,21.36 184.88,21.00 201.94,21.00 L 230.00 21.00 ZM 312.74 35.05 C311.19,37.52 310.37,37.52 309.72,35.04 C309.43,33.92 309.89,32.52 310.80,31.79 C312.01,30.81 312.20,30.80 311.63,31.75 C310.38,33.84 312.06,33.15 314.06,30.75 C316.48,27.85 316.46,27.00 314.00,27.00 C312.90,27.00 312.00,26.63 312.00,26.18 C312.00,25.29 305.53,25.56 303.98,26.51 C303.45,26.84 303.27,26.45 303.58,25.64 C304.71,22.71 313.40,19.99 321.19,20.14 C325.21,20.21 327.49,20.47 326.25,20.71 C325.01,20.94 324.00,21.56 324.00,22.07 C324.00,22.58 323.52,23.00 322.93,23.00 C322.34,23.00 321.15,23.70 320.30,24.56 C319.04,25.82 318.96,26.61 319.87,28.61 C319.94,28.77 320.01,28.92 320.08,29.07 C320.67,30.35 320.97,31.01 320.77,31.42 C320.52,31.92 319.55,32.05 317.48,32.44 C315.54,32.80 313.41,33.98 312.74,35.05 ZM 70.38 68.45 C70.05,69.30 69.72,69.98 69.64,69.95 C68.07,69.37 58.00,57.17 58.00,55.86 C58.00,54.63 61.94,55.79 63.69,57.54 C65.21,59.07 69.29,58.28 68.29,56.66 C67.91,56.05 67.44,53.85 67.25,51.77 C66.80,46.95 68.82,46.73 72.18,51.25 C74.90,54.89 74.81,57.61 71.96,58.51 C70.53,58.97 70.14,59.86 70.40,62.08 C70.59,63.71 70.35,65.28 69.87,65.58 C69.39,65.88 69.00,66.57 69.00,67.12 C69.00,67.67 69.44,67.84 69.99,67.51 C70.56,67.16 70.72,67.56 70.38,68.45 ZM 324.60 74.05 C324.54,74.08 322.70,74.32 320.50,74.58 C317.63,74.93 315.61,74.52 313.35,73.11 C310.05,71.06 301.00,69.68 301.00,71.22 C301.00,71.72 300.55,71.84 300.00,71.50 C299.45,71.16 299.00,71.39 299.00,72.00 C299.00,72.61 298.58,72.86 298.06,72.54 C297.07,71.92 298.57,66.38 299.96,65.52 C300.38,65.26 303.15,66.25 306.11,67.72 C310.65,69.96 312.87,70.39 320.11,70.44 C328.42,70.50 328.65,70.56 326.71,72.25 C325.60,73.21 324.65,74.02 324.60,74.05 ZM 121.82 38.88 C122.00,39.19 121.60,39.63 120.94,39.85 C119.61,40.30 120.34,38.62 122.68,35.89 C124.24,34.07 123.57,31.43 121.33,30.57 C120.50,30.25 118.55,30.89 117.00,32.00 C113.68,34.36 113.27,34.41 111.54,32.68 C110.45,31.59 110.50,31.01 111.86,29.34 C113.95,26.77 118.87,23.46 121.61,22.78 C123.55,22.30 123.64,22.49 122.69,25.02 C121.86,27.20 121.97,28.11 123.20,29.35 C124.06,30.20 125.03,30.64 125.36,30.31 C125.68,29.98 126.61,30.26 127.42,30.93 C129.25,32.45 128.37,35.00 126.02,35.00 C124.24,35.00 121.21,37.80 121.82,38.88 ZM 302.39 49.83 C303.58,51.74 302.51,51.17 300.09,48.60 C296.89,45.19 295.76,39.27 297.30,33.96 C297.98,31.59 299.16,29.45 299.91,29.20 C300.69,28.94 301.00,29.20 300.62,29.80 C300.26,30.38 300.49,31.19 301.14,31.59 C301.78,31.98 302.04,31.88 301.72,31.36 C301.40,30.83 301.55,29.75 302.07,28.95 C302.69,27.99 302.81,28.84 302.41,31.50 C302.08,33.70 301.41,35.65 300.91,35.83 C299.42,36.38 299.88,41.65 301.52,43.02 C302.36,43.72 303.34,44.00 303.69,43.64 C304.04,43.29 303.78,43.00 303.11,43.00 C302.43,43.00 302.16,42.55 302.49,42.01 C302.88,41.39 303.60,41.48 304.45,42.26 C305.28,43.02 305.45,43.92 304.91,44.59 C304.42,45.19 304.31,45.98 304.68,46.34 C305.04,46.70 304.75,47.00 304.04,47.00 C303.00,47.00 303.00,47.29 304.02,48.52 C305.09,49.81 305.00,49.94 303.48,49.35 C302.24,48.88 301.90,49.03 302.39,49.83 ZM 205.00 46.88 C205.00,47.49 204.32,48.00 203.50,48.00 C202.37,48.00 202.00,46.78 202.00,43.00 C202.00,37.99 202.65,37.05 204.70,39.10 C205.50,39.90 205.98,39.63 206.47,38.10 C206.83,36.95 207.58,36.00 208.13,36.00 C208.67,36.00 208.84,35.56 208.51,35.01 C208.16,34.44 208.56,34.28 209.45,34.62 C210.61,35.06 211.00,36.70 211.00,41.08 L 211.00 46.95 L 208.00 46.35 C206.09,45.97 205.00,46.16 205.00,46.88 ZM 81.81 53.62 C81.11,54.05 79.74,54.46 78.77,54.54 C77.23,54.65 77.00,53.73 77.00,47.49 C77.00,41.80 77.41,39.84 78.96,38.05 L 80.91 35.80 L 81.40 38.15 C82.81,45.00 83.02,52.87 81.81,53.62 ZM 342.52 29.70 C341.54,32.34 340.46,34.78 340.12,35.12 C338.89,36.36 332.92,32.91 331.97,30.42 C330.75,27.21 330.76,27.00 332.09,27.00 C332.69,27.00 334.03,28.01 335.07,29.25 C336.69,31.18 337.11,31.29 337.99,30.00 C339.02,28.51 338.91,27.16 337.49,23.70 C336.84,22.13 337.12,21.99 339.62,22.58 C344.11,23.64 344.46,24.49 342.52,29.70 ZM 326.01 51.00 C324.99,51.00 323.56,51.23 322.82,51.51 C322.09,51.80 320.53,51.36 319.37,50.54 C316.83,48.77 315.64,45.07 317.39,44.40 C318.54,43.96 329.81,46.47 330.70,47.37 C331.49,48.15 327.81,51.00 326.01,51.00 ZM 43.67 77.43 C43.33,78.29 42.06,79.00 40.83,79.00 C39.10,79.00 38.87,78.73 39.80,77.80 C40.46,77.14 41.00,75.65 41.00,74.48 C41.00,72.77 47.06,66.00 48.60,66.00 C48.82,66.00 49.00,68.48 49.00,71.52 C49.00,76.82 48.91,77.01 46.64,76.44 C45.01,76.04 44.08,76.34 43.67,77.43 ZM 196.92 67.83 C197.89,70.81 197.83,72.25 196.63,75.50 C195.23,79.25 195.14,78.08 195.07,57.05 C195.03,42.61 195.34,34.94 195.97,35.57 C197.19,36.79 197.39,45.11 196.46,55.83 C195.97,61.43 196.12,65.37 196.92,67.83 ZM 318.00 82.00 C315.43,83.66 308.28,82.79 306.50,80.60 C305.12,78.91 302.00,77.84 302.00,79.06 C302.00,79.60 300.65,79.35 299.00,78.50 C297.18,77.56 296.00,76.16 296.00,74.94 C296.00,73.35 296.37,73.12 297.75,73.83 C298.71,74.32 300.17,75.02 301.00,75.38 C301.83,75.73 301.46,75.83 300.19,75.59 C298.30,75.24 298.10,75.41 299.06,76.57 C299.70,77.34 300.52,77.80 300.87,77.58 C301.23,77.36 303.54,77.61 306.01,78.14 C308.48,78.67 311.74,79.08 313.25,79.04 C314.76,79.00 316.00,79.43 316.00,79.98 C316.00,80.54 316.79,81.01 317.75,81.02 C319.25,81.03 319.28,81.17 318.00,82.00 ZM 158.70 50.92 C158.43,54.20 156.00,54.91 156.00,51.71 C156.00,47.15 152.94,40.52 148.96,36.46 C145.80,33.24 145.39,32.43 146.89,32.43 C148.01,32.43 148.57,32.95 148.28,33.71 C147.83,34.88 149.15,35.47 151.32,35.09 C151.78,35.01 151.90,35.36 151.59,35.86 C151.28,36.36 151.96,37.02 153.11,37.32 C154.26,37.62 154.95,38.28 154.64,38.78 C154.32,39.28 154.95,40.64 156.02,41.79 C157.58,43.46 157.88,44.88 157.50,48.70 C157.13,52.43 157.24,52.94 157.97,51.00 L 158.90 48.50 ZM 325.50 58.00 C325.31,58.30 325.18,58.52 324.98,58.66 C324.45,59.04 323.45,58.78 319.64,57.77 L 319.53 57.74 C317.34,57.17 314.89,56.03 314.07,55.21 C313.20,54.35 312.45,54.16 312.25,54.76 C312.06,55.33 311.00,55.55 309.90,55.26 C308.77,54.97 308.11,54.17 308.39,53.43 C308.66,52.71 308.13,51.92 307.19,51.68 C306.26,51.43 306.89,51.18 308.60,51.12 C310.53,51.04 312.37,51.75 313.50,53.00 C314.84,54.48 315.64,54.72 316.60,53.91 C318.20,52.59 321.61,53.55 322.38,55.54 C322.68,56.34 323.65,57.00 324.53,57.00 C325.40,57.00 325.84,57.45 325.50,58.00 ZM 151.74 67.88 C150.77,68.64 148.64,69.42 147.01,69.61 L 144.04 69.96 L 148.18 66.23 C150.45,64.18 153.13,60.70 154.13,58.50 L 155.96 54.50 L 155.95 59.00 C155.94,63.48 155.10,65.25 151.74,67.88 ZM 104.77 52.52 C104.66,53.88 104.15,55.00 103.65,55.00 C102.25,55.00 103.56,41.89 105.28,38.68 C106.24,36.89 107.05,36.27 107.50,36.99 C107.88,37.62 107.95,38.39 107.64,38.70 C107.32,39.01 107.48,40.04 107.99,40.98 C108.63,42.18 108.32,43.81 106.94,46.37 C105.86,48.39 104.88,51.16 104.77,52.52 ZM 194.00 31.02 C194.00,32.73 193.32,33.00 189.06,33.00 C184.71,33.00 184.14,32.76 184.28,30.96 C184.57,27.04 194.00,27.09 194.00,31.02 ZM 241.02 76.51 C240.53,76.21 239.98,77.21 239.78,78.73 C239.49,81.02 239.35,80.81 238.96,77.50 C238.28,71.62 239.22,66.48 240.99,66.49 C241.80,66.50 242.63,67.33 242.83,68.35 C243.36,71.12 242.03,77.14 241.02,76.51 ZM 82.50 73.00 C81.65,74.65 80.54,76.00 80.03,76.00 C78.61,76.00 77.52,73.71 77.87,71.50 C78.47,67.79 82.00,65.22 82.00,68.50 C82.00,69.32 82.46,70.00 83.03,70.00 C83.61,70.00 83.38,71.29 82.50,73.00 ZM 335.00 63.16 C335.00,64.53 333.91,66.67 332.58,67.92 L 330.16 70.19 L 330.69 66.28 C331.07,63.42 330.76,61.91 329.54,60.68 C327.47,58.61 328.81,58.48 331.65,60.46 C332.80,61.27 334.02,61.65 334.37,61.30 C334.72,60.95 335.00,61.79 335.00,63.16 ZM 253.98 63.25 C253.98,66.14 253.53,69.18 253.00,70.00 C252.25,71.16 252.03,70.87 252.02,68.69 C252.01,67.15 251.66,66.09 251.25,66.35 C250.10,67.06 251.05,57.64 252.24,56.50 C252.96,55.82 253.07,55.90 252.59,56.75 C252.20,57.44 252.36,58.00 252.94,58.00 C253.55,58.00 253.99,60.21 253.98,63.25 ZM 122.00 77.99 C122.00,80.45 112.84,75.63 111.66,72.55 C110.92,70.63 110.94,70.63 115.10,72.65 C118.80,74.44 122.00,76.91 122.00,77.99 ZM 347.00 60.47 C347.00,61.84 344.67,60.74 342.43,58.33 C339.73,55.42 339.71,53.69 342.35,53.17 C343.49,52.95 344.52,54.00 345.52,56.39 C346.33,58.34 347.00,60.18 347.00,60.47 ZM 81.48 80.23 C82.04,80.64 81.30,80.98 79.82,80.98 C78.11,80.99 76.40,80.05 75.07,78.37 C72.57,75.19 72.34,73.22 74.69,75.13 C75.84,76.06 76.14,76.10 75.63,75.25 C74.09,72.68 77.03,74.11 78.70,76.75 C79.67,78.26 80.91,79.83 81.48,80.23 ZM 282.80 51.24 C282.57,55.29 282.10,56.56 280.75,56.81 C278.81,57.18 278.30,54.55 280.10,53.44 C280.70,53.07 281.01,51.24 280.80,49.38 C280.52,47.01 280.81,46.00 281.75,46.00 C282.75,46.00 283.03,47.36 282.80,51.24 ZM 246.04 47.45 C244.00,49.91 241.00,49.41 241.00,46.61 C241.00,43.67 243.82,42.39 245.84,44.41 C247.06,45.63 247.10,46.18 246.04,47.45 ZM 119.00 49.50 C119.00,54.93 117.59,55.33 115.96,50.38 C114.99,47.43 115.02,46.60 116.13,45.90 C118.56,44.36 119.00,44.92 119.00,49.50 ZM 277.50 73.00 C277.85,73.57 277.01,74.00 275.56,74.00 C274.15,74.00 273.00,73.55 273.00,73.00 C273.00,72.45 271.99,71.99 270.75,71.98 C268.93,71.97 268.79,71.78 270.00,71.00 C271.97,69.73 277.71,69.73 278.50,71.00 C278.84,71.55 278.61,72.00 278.00,72.00 C277.39,72.00 277.16,72.45 277.50,73.00 ZM 145.32 82.34 C143.80,83.87 138.67,82.35 138.25,80.25 C137.91,78.54 143.44,78.62 144.87,80.34 C145.48,81.08 145.69,81.98 145.32,82.34 ZM 122.26 62.49 C123.96,64.82 123.95,64.95 122.15,65.92 C119.78,67.19 119.00,66.42 119.00,62.83 C119.00,59.38 119.93,59.29 122.26,62.49 ZM 128.00 68.00 L 130.50 69.96 L 127.72 69.98 C126.16,69.99 124.69,69.34 124.36,68.51 C124.05,67.68 123.32,67.30 122.74,67.66 C122.13,68.04 121.99,67.83 122.40,67.15 C123.43,65.50 125.14,65.76 128.00,68.00 ZM 105.58 57.15 C106.50,58.08 107.02,59.93 106.82,61.62 C106.49,64.45 106.46,64.46 105.24,62.32 C104.56,61.11 104.00,59.11 104.00,57.85 C104.00,55.77 104.14,55.71 105.58,57.15 ZM 204.00 66.70 C204.00,67.96 204.28,68.01 205.50,67.00 C207.12,65.65 207.57,62.00 206.11,62.00 C205.09,62.00 204.00,64.43 204.00,66.70 ZM 273.64 45.78 C272.91,46.95 267.71,47.10 266.00,46.00 C264.92,45.30 265.84,45.03 269.31,45.02 C271.95,45.01 273.90,45.35 273.64,45.78 ZM 246.57 31.32 C246.95,32.32 246.81,33.59 246.25,34.15 C244.74,35.66 243.67,33.40 244.88,31.26 C245.81,29.59 245.90,29.59 246.57,31.32 ZM 340.26 53.40 C339.21,54.45 337.86,54.04 338.57,52.89 C338.95,52.28 338.64,51.38 337.88,50.90 C336.77,50.20 336.82,50.03 338.14,50.02 C339.84,50.00 341.32,52.35 340.26,53.40 ZM 259.50 46.00 C258.73,47.24 257.92,47.24 256.00,46.00 C254.84,45.25 255.13,45.03 257.31,45.02 C258.93,45.01 259.86,45.42 259.50,46.00 ZM 211.00 78.00 C211.00,78.55 210.07,79.00 208.94,79.00 C207.81,79.00 207.16,78.55 207.50,78.00 C207.84,77.45 208.77,77.00 209.56,77.00 C210.35,77.00 211.00,77.45 211.00,78.00 ZM 160.86 31.75 C162.11,33.54 163.35,35.00 163.60,35.00 C164.47,35.00 162.13,31.35 160.34,29.92 C159.09,28.91 159.24,29.44 160.86,31.75 ZM 112.00 51.00 C112.00,51.55 111.55,52.00 111.00,52.00 C110.45,52.00 110.00,51.55 110.00,51.00 C110.00,50.45 110.45,50.00 111.00,50.00 C111.55,50.00 112.00,50.45 112.00,51.00 Z" fill="rgb(44,63,80)"/>
<path d="M 104.77 52.52 C104.88,51.16 105.86,48.39 106.94,46.37 C108.32,43.81 108.63,42.18 107.99,40.98 C107.48,40.04 107.32,39.01 107.64,38.70 C107.95,38.39 107.88,37.62 107.50,36.99 C107.15,36.44 106.60,36.67 105.92,37.61 C109.16,30.15 115.23,24.75 123.99,21.60 C127.68,20.27 133.33,19.79 138.91,20.06 C135.20,19.93 130.13,20.27 129.00,21.00 C127.72,21.83 127.75,21.97 129.25,21.98 C130.21,21.99 131.00,22.45 131.00,23.00 C131.00,23.55 132.80,24.00 135.00,24.00 C137.49,24.00 139.03,24.47 139.08,25.25 C139.14,26.24 139.26,26.24 139.66,25.24 C139.94,24.55 140.53,24.21 140.97,24.48 C141.41,24.76 142.32,24.32 142.99,23.52 C144.04,22.25 144.63,22.38 147.35,24.44 C149.08,25.76 152.37,27.58 154.67,28.49 C158.66,30.08 165.07,37.26 163.71,38.62 C163.39,38.94 164.48,41.06 166.13,43.34 C168.50,46.61 169.09,48.41 168.97,51.99 C168.76,58.43 168.88,59.19 170.00,58.50 C170.07,58.45 170.15,58.36 170.22,58.22 C169.90,59.58 169.50,60.94 168.99,62.29 C167.01,67.58 160.79,76.00 158.85,76.00 C158.30,76.00 157.21,76.64 156.43,77.43 C155.64,78.21 152.47,79.80 149.37,80.96 C148.12,81.43 146.82,81.81 145.46,82.11 C145.60,81.67 145.38,80.95 144.87,80.34 C143.44,78.62 137.91,78.54 138.25,80.25 C138.47,81.36 140.00,82.30 141.62,82.73 C132.94,83.63 123.18,81.54 116.50,76.96 C116.37,76.87 116.24,76.78 116.11,76.69 C118.93,78.40 122.00,79.41 122.00,77.99 C122.00,76.91 118.80,74.44 115.10,72.65 C110.94,70.63 110.92,70.63 111.66,72.55 C111.86,73.07 112.28,73.64 112.86,74.22 C109.56,71.41 107.71,68.59 105.45,63.49 C103.59,59.32 103.04,57.43 103.09,53.35 C103.16,54.37 103.34,55.00 103.65,55.00 C104.15,55.00 104.66,53.88 104.77,52.52 ZM 267.00 32.30 C267.00,31.83 265.42,30.61 263.50,29.57 C261.58,28.53 260.00,27.10 260.00,26.38 C260.00,24.21 267.27,22.55 271.06,23.87 C272.84,24.49 275.55,25.00 277.09,25.00 C281.92,25.00 281.76,27.34 276.75,29.92 C273.85,31.41 273.38,32.33 275.34,32.69 L 270.20 32.78 L 253.90 33.05 L 254.20 38.78 L 254.50 44.50 L 283.10 45.06 L 282.87 49.34 C282.90,46.90 282.57,46.00 281.75,46.00 C280.81,46.00 280.52,47.01 280.80,49.38 C281.01,51.24 280.70,53.07 280.10,53.44 C278.79,54.25 278.70,55.86 279.50,56.54 L 270.50 56.66 C263.90,56.74 257.47,56.86 256.20,56.91 C254.03,57.00 253.92,57.33 254.20,63.25 L 254.50 69.50 L 288.00 70.05 L 288.00 82.00 L 238.00 82.00 L 238.00 21.92 C238.00,24.62 239.30,25.81 241.76,25.37 C243.19,25.11 245.00,24.54 245.79,24.10 C247.15,23.33 253.20,24.87 254.69,26.35 C255.09,26.75 254.42,27.34 253.21,27.66 C251.26,28.16 250.20,30.87 251.45,32.12 C252.31,32.97 267.00,33.14 267.00,32.30 ZM 158.70 50.92 L 158.90 48.50 L 157.97 51.00 C157.24,52.94 157.13,52.43 157.50,48.70 C157.88,44.88 157.58,43.46 156.02,41.79 C154.95,40.64 154.32,39.28 154.64,38.78 C154.95,38.28 154.26,37.62 153.11,37.32 C151.96,37.02 151.28,36.36 151.59,35.86 C151.90,35.36 151.78,35.01 151.32,35.09 C149.15,35.47 147.83,34.88 148.28,33.71 C148.57,32.95 148.01,32.43 146.89,32.43 C145.39,32.43 145.80,33.24 148.96,36.46 C149.13,36.64 149.30,36.81 149.46,37.00 C146.28,34.12 142.58,33.00 137.00,33.00 C131.68,33.00 129.60,33.47 126.92,35.27 C121.18,39.14 119.00,43.39 119.00,50.70 C119.00,54.27 119.62,58.29 120.41,59.80 C120.66,60.27 120.95,60.76 121.29,61.25 C119.67,59.39 119.00,59.91 119.00,62.83 C119.00,66.42 119.78,67.19 122.15,65.92 C123.81,65.03 123.95,64.84 122.63,62.99 C124.80,65.56 127.75,67.98 130.00,68.88 C133.63,70.32 140.56,70.21 144.30,68.65 C146.12,67.89 148.34,66.12 150.26,64.10 C149.56,64.89 148.85,65.62 148.18,66.23 L 144.04 69.96 L 147.01 69.61 C148.64,69.42 150.77,68.64 151.74,67.88 C155.10,65.25 155.94,63.48 155.95,59.00 L 155.96 54.50 L 154.59 57.50 C154.59,57.48 154.60,57.46 154.60,57.45 C155.48,53.95 154.97,47.57 153.74,43.41 C155.14,46.30 156.00,49.29 156.00,51.71 C156.00,54.91 158.43,54.20 158.70,50.92 ZM 230.00 27.00 L 230.00 33.00 L 211.00 33.00 L 211.00 41.08 C211.00,36.70 210.61,35.06 209.45,34.62 C208.56,34.28 208.16,34.44 208.51,35.01 C208.84,35.56 208.67,36.00 208.13,36.00 C207.58,36.00 206.83,36.95 206.47,38.10 C205.98,39.63 205.50,39.90 204.70,39.10 C202.65,37.05 202.00,37.99 202.00,43.00 C202.00,46.78 202.37,48.00 203.50,48.00 C204.32,48.00 205.00,47.49 205.00,46.88 C205.00,46.16 206.09,45.97 208.00,46.35 L 211.00 46.95 L 211.00 82.00 L 195.00 82.00 L 195.00 33.07 L 191.12 32.96 C193.55,32.84 194.00,32.40 194.00,31.02 C194.00,27.09 184.57,27.04 184.28,30.96 C184.20,32.05 184.37,32.57 185.49,32.81 L 184.75 32.78 L 174.50 32.50 L 174.20 26.75 L 173.90 21.00 L 201.94 21.00 C184.88,21.00 174.11,21.36 174.46,21.93 C174.77,22.44 176.10,22.67 177.40,22.43 C178.71,22.20 181.06,22.67 182.64,23.49 C186.31,25.41 193.07,25.41 197.65,23.50 C202.27,21.57 208.99,21.58 212.64,23.52 C214.77,24.66 217.09,24.88 221.75,24.41 C227.18,23.85 228.00,23.99 228.00,25.44 C228.00,26.36 227.66,26.92 227.25,26.69 C226.84,26.45 225.69,27.04 224.70,28.01 C223.04,29.62 223.03,29.89 224.52,31.38 C225.41,32.27 227.01,33.00 228.07,33.00 C229.76,33.00 230.00,32.26 230.00,27.00 ZM 312.74 35.05 C312.97,34.67 313.39,34.28 313.92,33.92 C312.88,34.78 312.36,36.00 312.20,37.63 C311.94,40.30 312.37,40.95 315.38,42.38 C317.30,43.29 322.16,44.85 326.19,45.86 C335.37,48.15 340.61,50.29 343.54,53.43 C343.15,53.18 342.76,53.09 342.35,53.17 C339.71,53.69 339.73,55.42 342.43,58.33 C344.24,60.28 346.11,61.37 346.76,60.99 C347.76,68.83 343.66,76.09 335.96,80.02 C333.34,81.36 329.16,82.09 321.87,82.50 C319.35,82.65 317.38,82.73 315.72,82.74 C316.64,82.61 317.43,82.37 318.00,82.00 C319.28,81.17 319.25,81.03 317.75,81.02 C316.79,81.01 316.00,80.54 316.00,79.98 C316.00,79.43 314.76,79.00 313.25,79.04 C311.74,79.08 308.48,78.67 306.01,78.14 C303.54,77.61 301.23,77.36 300.87,77.58 C300.52,77.80 299.70,77.34 299.06,76.57 C298.10,75.41 298.30,75.24 300.19,75.59 C301.46,75.83 301.83,75.73 301.00,75.38 C300.17,75.02 298.71,74.32 297.75,73.83 C297.21,73.55 296.82,73.42 296.55,73.45 C296.67,73.01 296.83,72.52 297.01,71.98 C297.59,70.21 298.05,68.86 298.51,67.89 C297.80,69.79 297.43,72.15 298.06,72.54 C298.58,72.86 299.00,72.61 299.00,72.00 C299.00,71.39 299.45,71.16 300.00,71.50 C300.55,71.84 301.00,71.72 301.00,71.22 C301.00,69.68 310.05,71.06 313.35,73.11 C315.61,74.52 317.63,74.93 320.50,74.58 C322.70,74.32 324.54,74.08 324.60,74.05 C324.65,74.02 325.60,73.21 326.71,72.25 C328.10,71.04 328.38,70.67 325.40,70.53 C328.82,69.99 330.36,68.49 330.76,65.71 C330.74,65.89 330.72,66.08 330.69,66.28 L 330.16 70.19 L 332.58 67.92 C333.91,66.67 335.00,64.53 335.00,63.16 C335.00,61.79 334.72,60.95 334.37,61.30 C334.02,61.65 332.80,61.27 331.65,60.46 C328.81,58.48 327.47,58.61 329.54,60.68 C330.38,61.53 330.79,62.51 330.84,63.98 C330.67,61.67 329.10,60.36 324.06,58.81 C324.52,58.86 324.78,58.81 324.98,58.66 C325.18,58.52 325.31,58.30 325.50,58.00 C325.84,57.45 325.40,57.00 324.53,57.00 C323.65,57.00 322.68,56.34 322.38,55.54 C321.61,53.55 318.20,52.59 316.60,53.91 C315.64,54.72 314.84,54.48 313.50,53.00 C312.37,51.75 310.53,51.04 308.60,51.12 C306.89,51.18 306.26,51.43 307.19,51.68 C308.13,51.92 308.66,52.71 308.39,53.43 C308.28,53.71 308.31,54.01 308.46,54.28 C306.33,53.43 304.53,52.53 303.16,51.62 C299.19,48.96 298.32,47.76 297.26,43.50 C296.44,40.22 296.30,38.46 296.88,35.78 C296.04,40.57 297.25,45.57 300.09,48.60 C302.51,51.17 303.58,51.74 302.39,49.83 C301.90,49.03 302.24,48.88 303.48,49.35 C305.00,49.94 305.09,49.81 304.02,48.52 C303.00,47.29 303.00,47.00 304.04,47.00 C304.75,47.00 305.04,46.70 304.68,46.34 C304.31,45.98 304.42,45.19 304.91,44.59 C305.45,43.92 305.28,43.02 304.45,42.26 C303.60,41.48 302.88,41.39 302.49,42.01 C302.16,42.55 302.43,43.00 303.11,43.00 C303.78,43.00 304.04,43.29 303.69,43.64 C303.34,44.00 302.36,43.72 301.52,43.02 C299.88,41.65 299.42,36.38 300.91,35.83 C301.41,35.65 302.08,33.70 302.41,31.50 C302.81,28.84 302.69,27.99 302.07,28.95 C301.55,29.75 301.40,30.83 301.72,31.36 C302.04,31.88 301.78,31.98 301.14,31.59 C300.49,31.19 300.26,30.38 300.62,29.80 C301.00,29.20 300.69,28.94 299.91,29.20 C299.27,29.41 298.33,30.98 297.64,32.90 C299.01,28.36 300.31,26.54 304.78,24.17 C304.19,24.65 303.78,25.14 303.58,25.64 C303.27,26.45 303.45,26.84 303.98,26.51 C305.53,25.56 312.00,25.29 312.00,26.18 C312.00,26.63 312.90,27.00 314.00,27.00 C316.46,27.00 316.48,27.85 314.06,30.75 C312.06,33.15 310.38,33.84 311.63,31.75 C312.20,30.80 312.01,30.81 310.80,31.79 C309.89,32.52 309.43,33.92 309.72,35.04 C310.37,37.52 311.19,37.52 312.74,35.05 ZM 70.38 68.45 C70.72,67.56 70.56,67.16 69.99,67.51 C69.44,67.84 69.00,67.67 69.00,67.12 C69.00,66.57 69.39,65.88 69.87,65.58 C70.35,65.28 70.59,63.71 70.40,62.08 C70.14,59.86 70.53,58.97 71.96,58.51 C74.60,57.68 74.87,55.30 72.76,52.07 L 75.50 55.48 L 76.20 45.99 C76.59,40.77 76.66,34.38 76.37,31.79 C76.07,29.20 76.12,25.71 76.49,24.04 L 77.16 21.00 L 84.50 21.00 C77.79,21.00 77.00,21.20 77.00,22.91 C77.00,24.32 77.52,24.68 79.00,24.29 C80.10,24.00 81.00,23.37 81.00,22.88 C81.00,22.40 83.03,22.00 85.50,22.00 L 90.00 22.00 L 89.97 25.75 C89.95,27.81 89.28,30.37 88.47,31.44 C86.80,33.65 86.44,43.54 88.00,44.50 C89.52,45.44 89.20,54.53 87.35,63.14 C85.72,70.70 85.73,70.88 87.85,74.47 C89.03,76.47 90.00,78.76 90.00,79.56 C90.00,80.35 90.45,81.00 91.00,81.00 C91.64,81.00 91.99,70.53 92.00,51.54 L 92.00 82.09 L 77.67 81.50 L 75.82 79.19 C77.01,80.36 78.41,80.99 79.82,80.98 C81.30,80.98 82.04,80.64 81.48,80.23 C80.91,79.83 79.67,78.26 78.70,76.75 C77.03,74.11 74.09,72.68 75.63,75.25 C76.14,76.10 75.84,76.06 74.69,75.13 C72.64,73.46 72.56,74.75 74.23,77.21 L 71.25 73.50 C67.72,69.10 61.38,61.22 57.17,56.00 L 51.72 49.25 L 52.79 50.30 C56.36,53.78 59.50,55.51 57.18,52.72 C56.42,51.80 56.66,50.24 58.06,47.11 C60.05,42.67 60.46,42.53 65.42,44.56 C66.50,45.00 65.47,43.11 62.74,39.63 L 70.51 49.27 C68.17,46.96 66.88,47.81 67.25,51.77 C67.44,53.85 67.91,56.05 68.29,56.66 C69.29,58.28 65.21,59.07 63.69,57.54 C61.94,55.79 58.00,54.63 58.00,55.86 C58.00,57.17 68.07,69.37 69.64,69.95 C69.72,69.98 70.05,69.30 70.38,68.45 ZM 43.45 61.84 C44.85,61.20 46.00,60.32 46.00,59.87 C46.00,59.43 46.67,59.32 47.50,59.64 C48.74,60.12 49.00,59.05 49.00,53.40 L 49.00 46.59 L 49.49 47.07 L 49.23 64.25 L 48.95 82.00 L 34.00 82.00 L 34.00 51.50 C34.00,81.20 34.04,81.80 35.98,81.30 C37.57,80.88 37.76,80.41 36.93,78.88 C36.24,77.58 36.26,75.06 37.01,70.92 C37.72,67.04 37.86,59.68 37.41,50.47 C36.83,38.50 36.97,35.70 38.22,33.79 C39.13,32.40 39.54,30.19 39.24,28.21 C38.77,24.96 38.79,24.93 42.41,25.33 C44.42,25.55 46.33,26.00 46.66,26.33 C46.99,26.66 48.14,26.46 49.21,25.89 C50.25,25.33 50.72,25.04 50.63,24.57 L 61.19 37.70 C56.38,31.90 53.26,29.93 53.47,32.91 C53.54,33.80 53.94,35.09 54.36,35.77 C54.78,36.45 54.84,37.45 54.50,38.00 C54.16,38.55 54.26,39.00 54.73,39.00 C55.19,39.00 55.57,39.88 55.57,40.96 C55.57,42.80 55.46,42.82 53.74,41.27 C52.17,39.84 52.00,39.83 52.51,41.17 C52.97,42.38 52.52,42.67 50.56,42.46 C49.16,42.30 47.77,42.57 47.47,43.04 C47.18,43.52 46.28,43.66 45.47,43.35 C44.50,42.98 44.00,41.36 44.00,38.58 C44.00,36.26 43.30,33.51 42.43,32.44 C40.99,30.65 40.91,31.02 41.47,37.35 C41.80,41.12 41.67,44.72 41.17,45.35 C39.76,47.15 38.91,54.60 39.62,59.00 C39.97,61.20 40.40,63.00 40.58,63.00 C40.76,63.00 42.05,62.48 43.45,61.84 ZM 316.13 32.81 C316.58,32.65 317.03,32.52 317.48,32.44 C319.55,32.05 320.52,31.92 320.77,31.42 C320.97,31.01 320.67,30.35 320.08,29.07 C320.01,28.92 319.94,28.77 319.87,28.61 C318.96,26.61 319.04,25.82 320.30,24.56 C321.15,23.70 322.34,23.00 322.93,23.00 C323.52,23.00 324.00,22.58 324.00,22.07 C324.00,21.56 325.01,20.94 326.25,20.71 C327.49,20.47 325.21,20.21 321.19,20.14 C317.35,20.06 313.29,20.69 310.03,21.69 C314.12,19.94 316.08,19.86 325.32,20.18 C331.47,20.39 337.40,21.08 338.50,21.71 C339.23,22.13 340.24,22.61 341.13,22.98 C340.69,22.84 340.19,22.71 339.62,22.58 C337.12,21.99 336.84,22.13 337.49,23.70 C338.91,27.16 339.02,28.51 337.99,30.00 C337.11,31.29 336.69,31.18 335.07,29.25 C334.03,28.01 332.69,27.00 332.09,27.00 C330.76,27.00 330.75,27.21 331.97,30.42 C332.46,31.72 334.32,33.28 336.16,34.29 C334.03,33.45 329.08,32.57 325.02,32.33 C321.00,32.10 318.13,32.22 316.13,32.81 ZM 207.00 76.03 C207.00,75.57 207.90,75.42 209.00,75.71 C210.91,76.21 211.00,75.74 211.00,65.20 C211.00,57.27 210.65,54.05 209.75,53.73 C209.05,53.49 208.00,54.66 207.37,56.40 L 206.23 59.50 L 205.14 56.75 C204.54,55.24 203.52,54.00 202.88,54.00 C202.04,54.00 201.88,55.98 202.29,60.98 C202.65,65.20 202.49,68.20 201.88,68.57 C201.04,69.09 201.49,74.21 202.54,76.03 C203.06,76.93 207.00,76.93 207.00,76.03 ZM 121.82 38.88 C121.21,37.80 124.24,35.00 126.02,35.00 C128.37,35.00 129.25,32.45 127.42,30.93 C126.61,30.26 125.68,29.98 125.36,30.31 C125.03,30.64 124.06,30.20 123.20,29.35 C121.97,28.11 121.86,27.20 122.69,25.02 C123.64,22.49 123.55,22.30 121.61,22.78 C118.87,23.46 113.95,26.77 111.86,29.34 C110.50,31.01 110.45,31.59 111.54,32.68 C113.27,34.41 113.68,34.36 117.00,32.00 C118.55,30.89 120.50,30.25 121.33,30.57 C123.57,31.43 124.24,34.07 122.68,35.89 C120.34,38.62 119.61,40.30 120.94,39.85 C121.60,39.63 122.00,39.19 121.82,38.88 ZM 81.81 53.62 C83.02,52.87 82.81,45.00 81.40,38.15 L 80.91 35.80 L 78.96 38.05 C77.41,39.84 77.00,41.80 77.00,47.49 C77.00,53.73 77.23,54.65 78.77,54.54 C79.74,54.46 81.11,54.05 81.81,53.62 ZM 326.01 51.00 C327.81,51.00 331.49,48.15 330.70,47.37 C329.81,46.47 318.54,43.96 317.39,44.40 C315.64,45.07 316.83,48.77 319.37,50.54 C320.53,51.36 322.09,51.80 322.82,51.51 C323.56,51.23 324.99,51.00 326.01,51.00 ZM 43.67 77.43 C44.08,76.34 45.01,76.04 46.64,76.44 C48.91,77.01 49.00,76.82 49.00,71.52 C49.00,68.48 48.82,66.00 48.60,66.00 C47.06,66.00 41.00,72.77 41.00,74.48 C41.00,75.65 40.46,77.14 39.80,77.80 C38.87,78.73 39.10,79.00 40.83,79.00 C42.06,79.00 43.33,78.29 43.67,77.43 ZM 196.92 67.83 C196.12,65.37 195.97,61.43 196.46,55.83 C197.39,45.11 197.19,36.79 195.97,35.57 C195.34,34.94 195.03,42.61 195.07,57.05 C195.14,78.08 195.23,79.25 196.63,75.50 C197.83,72.25 197.89,70.81 196.92,67.83 ZM 241.02 76.51 C242.03,77.14 243.36,71.12 242.83,68.35 C242.63,67.33 241.80,66.50 240.99,66.49 C239.22,66.48 238.28,71.62 238.96,77.50 C239.35,80.81 239.49,81.02 239.78,78.73 C239.98,77.21 240.53,76.21 241.02,76.51 ZM 82.50 73.00 C83.38,71.29 83.61,70.00 83.03,70.00 C82.46,70.00 82.00,69.32 82.00,68.50 C82.00,65.22 78.47,67.79 77.87,71.50 C77.52,73.71 78.61,76.00 80.03,76.00 C80.54,76.00 81.65,74.65 82.50,73.00 ZM 253.98 63.25 C253.99,60.21 253.55,58.00 252.94,58.00 C252.36,58.00 252.20,57.44 252.59,56.75 C253.07,55.90 252.96,55.82 252.24,56.50 C251.05,57.64 250.10,67.06 251.25,66.35 C251.66,66.09 252.01,67.15 252.02,68.69 C252.03,70.87 252.25,71.16 253.00,70.00 C253.53,69.18 253.98,66.14 253.98,63.25 ZM 246.04 47.45 C247.10,46.18 247.06,45.63 245.84,44.41 C243.82,42.39 241.00,43.67 241.00,46.61 C241.00,49.41 244.00,49.91 246.04,47.45 ZM 119.00 49.50 C119.00,44.92 118.56,44.36 116.13,45.90 C115.02,46.60 114.99,47.43 115.96,50.38 C117.59,55.33 119.00,54.93 119.00,49.50 ZM 277.50 73.00 C277.16,72.45 277.39,72.00 278.00,72.00 C278.61,72.00 278.84,71.55 278.50,71.00 C277.71,69.73 271.97,69.73 270.00,71.00 C268.79,71.78 268.93,71.97 270.75,71.98 C271.99,71.99 273.00,72.45 273.00,73.00 C273.00,73.55 274.15,74.00 275.56,74.00 C277.01,74.00 277.85,73.57 277.50,73.00 ZM 128.00 68.00 C125.14,65.76 123.43,65.50 122.40,67.15 C121.99,67.83 122.13,68.04 122.74,67.66 C123.32,67.30 124.05,67.68 124.36,68.51 C124.69,69.34 126.16,69.99 127.72,69.98 L 130.50 69.96 ZM 105.58 57.15 C104.14,55.71 104.00,55.77 104.00,57.85 C104.00,59.11 104.56,61.11 105.24,62.32 C106.46,64.46 106.49,64.45 106.82,61.62 C107.02,59.93 106.50,58.08 105.58,57.15 ZM 204.00 66.70 C204.00,64.43 205.09,62.00 206.11,62.00 C207.57,62.00 207.12,65.65 205.50,67.00 C204.28,68.01 204.00,67.96 204.00,66.70 ZM 165.92 33.97 C165.89,33.97 165.85,33.96 165.81,33.96 C165.09,33.94 162.93,31.91 161.00,29.46 C158.20,25.88 153.91,22.95 150.14,21.76 C151.40,22.12 152.53,22.54 153.50,23.01 C158.73,25.56 162.94,29.39 165.92,33.97 ZM 273.64 45.78 C273.90,45.35 271.95,45.01 269.31,45.02 C265.84,45.03 264.92,45.30 266.00,46.00 C267.71,47.10 272.91,46.95 273.64,45.78 ZM 246.57 31.32 C245.90,29.59 245.81,29.59 244.88,31.26 C243.67,33.40 244.74,35.66 246.25,34.15 C246.81,33.59 246.95,32.32 246.57,31.32 ZM 340.26 53.40 C341.32,52.35 339.84,50.00 338.14,50.02 C336.82,50.03 336.77,50.20 337.88,50.90 C338.64,51.38 338.95,52.28 338.57,52.89 C337.86,54.04 339.21,54.45 340.26,53.40 ZM 300.31 79.08 C301.31,79.43 302.00,79.45 302.00,79.06 C302.00,77.84 305.12,78.91 306.50,80.60 C306.93,81.13 307.67,81.58 308.58,81.94 C307.43,81.63 306.20,81.22 304.71,80.70 C302.92,80.08 301.47,79.55 300.31,79.08 ZM 259.50 46.00 C259.86,45.42 258.93,45.01 257.31,45.02 C255.13,45.03 254.84,45.25 256.00,46.00 C257.92,47.24 258.73,47.24 259.50,46.00 ZM 211.00 78.00 C211.00,77.45 210.35,77.00 209.56,77.00 C208.77,77.00 207.84,77.45 207.50,78.00 C207.16,78.55 207.81,79.00 208.94,79.00 C210.07,79.00 211.00,78.55 211.00,78.00 ZM 160.86 31.75 C159.24,29.44 159.09,28.91 160.34,29.92 C162.13,31.35 164.47,35.00 163.60,35.00 C163.35,35.00 162.11,33.54 160.86,31.75 ZM 262.55 21.00 C248.31,21.00 238.00,21.39 238.00,21.92 L 238.00 21.00 ZM 311.37 55.34 C311.82,55.25 312.15,55.05 312.25,54.76 C312.45,54.16 313.20,54.35 314.07,55.21 C314.62,55.77 315.93,56.47 317.40,57.05 L 317.16 56.99 C315.11,56.49 313.16,55.94 311.37,55.34 ZM 112.00 51.00 C112.00,50.45 111.55,50.00 111.00,50.00 C110.45,50.00 110.00,50.45 110.00,51.00 C110.00,51.55 110.45,52.00 111.00,52.00 C111.55,52.00 112.00,51.55 112.00,51.00 ZM 167.62 36.92 C167.21,36.44 166.80,36.24 166.42,36.39 C165.67,36.68 164.76,36.41 164.38,35.80 C163.98,35.15 164.14,34.97 164.78,35.36 C165.37,35.73 166.14,35.58 166.49,35.02 C166.51,34.99 166.52,34.97 166.53,34.94 C166.92,35.59 167.28,36.25 167.62,36.92 ZM 148.84 21.41 C147.75,21.17 146.73,21.11 145.82,21.24 C144.27,21.47 143.00,21.28 143.00,20.83 C143.00,20.53 142.18,20.31 140.94,20.19 C143.74,20.41 146.46,20.82 148.84,21.41 ZM 48.87 22.39 C47.54,21.29 45.63,21.00 40.88,21.00 L 47.76 21.00 ZM 314.85 70.26 C311.36,69.98 309.32,69.30 306.11,67.72 C304.45,66.89 302.85,66.22 301.69,65.84 C302.72,66.05 304.06,66.66 305.94,67.56 C308.69,68.89 311.57,69.77 314.85,70.26 ZM 342.52 29.70 C343.99,25.77 344.15,24.32 342.20,23.38 C342.25,23.40 342.31,23.42 342.36,23.44 C344.39,24.08 344.23,25.80 341.54,32.26 L 340.01 35.90 L 338.48 35.26 C339.22,35.45 339.81,35.43 340.12,35.12 C340.46,34.78 341.54,32.34 342.52,29.70 ZM 281.48 56.51 C282.16,56.01 282.50,54.90 282.70,52.64 L 282.50 56.50 ZM 171.00 51.62 C171.00,49.33 170.76,46.93 170.36,44.74 C170.89,47.27 171.10,49.87 170.99,52.50 C171.00,52.21 171.00,51.92 171.00,51.62 ZM 296.36 76.18 C296.84,77.03 297.77,77.86 298.98,78.49 C297.44,77.75 296.65,77.07 296.36,76.18 ZM 345.95 57.46 C345.82,57.11 345.67,56.75 345.52,56.39 C345.50,56.35 345.49,56.31 345.47,56.27 C345.65,56.65 345.81,57.05 345.95,57.46 Z" fill="rgb(46,66,86)"/>
<path d="M 424.05 64.75 L 424.00 82.00 L 410.00 82.00 L 410.00 20.00 L 423.61 20.00 L 433.40 37.50 C438.78,47.12 443.53,55.21 443.95,55.47 C444.37,55.73 449.30,47.86 454.91,37.97 L 465.09 20.00 L 479.00 20.00 L 479.08 49.25 C479.12,65.34 479.30,79.29 479.49,80.25 C479.78,81.79 478.93,82.00 472.43,82.00 L 465.05 82.00 L 464.50 46.50 L 460.00 54.29 C450.34,71.02 448.81,73.94 446.63,74.56 C446.00,74.74 445.31,74.72 444.36,74.80 C440.64,75.08 440.35,74.88 437.30,69.80 C435.55,66.88 432.63,61.76 430.81,58.40 C430.56,57.93 430.31,57.48 430.07,57.04 C427.31,51.93 425.82,49.19 425.02,49.38 C424.09,49.59 424.08,53.74 424.06,62.69 C424.06,63.35 424.05,64.04 424.05,64.75 ZM 402.39 77.13 L 401.74 82.00 L 356.00 82.00 L 356.00 20.00 L 372.00 20.00 L 372.00 69.00 L 386.89 69.00 L 387.89 69.00 C397.40,69.00 401.11,69.00 402.32,70.74 C403.09,71.85 402.85,73.66 402.45,76.64 C402.43,76.80 402.41,76.96 402.39,77.13 Z" fill="rgb(160,196,144)"/>
<path d="M 0.00 53.00 L 0.00 0.00 L 249.50 0.00 L 499.00 0.00 L 499.00 53.00 L 499.00 106.00 L 249.50 106.00 L 0.00 106.00 L 0.00 53.00 ZM 149.37 80.96 C152.47,79.80 155.64,78.21 156.43,77.43 C157.21,76.64 158.30,76.00 158.85,76.00 C160.79,76.00 167.01,67.58 168.99,62.29 C174.69,47.05 168.00,30.08 153.50,23.01 C146.66,19.68 131.38,18.94 123.99,21.60 C111.11,26.23 104.04,35.73 103.25,49.50 C102.84,56.57 103.10,58.19 105.45,63.49 C108.43,70.21 110.69,72.97 116.50,76.96 C125.28,82.98 139.38,84.70 149.37,80.96 ZM 335.96 80.02 C343.87,75.99 347.98,68.43 346.67,60.34 C345.44,52.78 340.83,49.52 326.19,45.86 C322.16,44.85 317.30,43.29 315.38,42.38 C312.37,40.95 311.94,40.30 312.20,37.63 C312.64,33.11 315.84,31.79 325.02,32.33 C329.15,32.58 334.22,33.48 336.27,34.34 L 340.01 35.90 L 341.54 32.26 C344.23,25.80 344.39,24.08 342.36,23.44 C341.34,23.12 339.60,22.34 338.50,21.71 C337.40,21.08 331.47,20.39 325.32,20.18 C314.91,19.82 313.75,19.97 308.35,22.44 C300.67,25.96 299.22,27.42 297.49,33.43 C296.27,37.64 296.23,39.35 297.26,43.50 C298.32,47.76 299.19,48.96 303.16,51.62 C306.14,53.61 311.20,55.55 317.16,56.99 C329.14,59.88 331.21,61.14 330.81,65.29 C330.36,69.84 327.19,71.22 318.43,70.65 C313.60,70.33 309.65,69.35 305.94,67.56 C299.78,64.59 299.38,64.79 297.01,71.98 C295.33,77.06 295.78,77.57 304.71,80.70 C310.77,82.83 312.62,83.02 321.87,82.50 C329.16,82.09 333.34,81.36 335.96,80.02 ZM 49.23 64.25 L 49.50 46.50 L 57.17 56.00 C61.38,61.22 67.72,69.10 71.25,73.50 L 77.67 81.50 L 84.83 81.79 L 92.00 82.09 L 92.00 51.54 L 92.00 21.00 L 84.58 21.00 L 77.16 21.00 L 76.49 24.04 C76.12,25.71 76.07,29.20 76.37,31.79 C76.66,34.38 76.59,40.77 76.20,45.99 L 75.50 55.48 L 61.63 38.24 L 47.76 21.00 L 40.88 21.00 L 34.00 21.00 L 34.00 51.50 L 34.00 82.00 L 41.48 82.00 L 48.95 82.00 L 49.23 64.25 ZM 211.00 57.50 L 211.00 33.00 L 220.50 33.00 L 230.00 33.00 L 230.00 27.00 L 230.00 21.00 L 201.95 21.00 L 173.90 21.00 L 174.20 26.75 L 174.50 32.50 L 184.75 32.78 L 195.00 33.07 L 195.00 57.53 L 195.00 82.00 L 203.00 82.00 L 211.00 82.00 L 211.00 57.50 ZM 288.00 76.02 L 288.00 70.05 L 271.25 69.77 L 254.50 69.50 L 254.20 63.25 C253.92,57.33 254.03,57.00 256.20,56.91 C257.47,56.86 263.90,56.74 270.50,56.66 L 282.50 56.50 L 282.80 50.78 L 283.10 45.06 L 268.80 44.78 L 254.50 44.50 L 254.20 38.78 L 253.90 33.05 L 270.20 32.78 L 286.50 32.50 L 286.80 26.75 L 287.10 21.00 L 262.55 21.00 L 238.00 21.00 L 238.00 51.50 L 238.00 82.00 L 263.00 82.00 L 288.00 82.00 L 288.00 76.02 ZM 402.39 77.13 C403.49,68.83 403.81,69.00 386.89,69.00 L 372.00 69.00 L 372.00 44.50 L 372.00 20.00 L 364.00 20.00 L 356.00 20.00 L 356.00 51.00 L 356.00 82.00 L 378.87 82.00 L 401.74 82.00 L 402.39 77.13 ZM 424.05 64.75 C424.11,45.32 423.84,45.57 430.81,58.40 C432.63,61.76 435.55,66.88 437.30,69.80 C440.35,74.88 440.64,75.08 444.36,74.80 C448.60,74.47 447.54,75.86 460.00,54.29 L 464.50 46.50 L 464.77 64.25 L 465.05 82.00 L 472.43 82.00 C478.93,82.00 479.78,81.79 479.49,80.25 C479.30,79.29 479.12,65.34 479.08,49.25 L 479.00 20.00 L 472.05 20.00 L 465.09 20.00 L 454.91 37.97 C449.30,47.86 444.37,55.73 443.95,55.47 C443.53,55.21 438.78,47.12 433.40,37.50 L 423.61 20.00 L 416.81 20.00 L 410.00 20.00 L 410.00 51.00 L 410.00 82.00 L 417.00 82.00 L 424.00 82.00 L 424.05 64.75 ZM 130.00 68.88 C126.81,67.61 122.22,63.27 120.41,59.80 C119.62,58.29 119.00,54.27 119.00,50.70 C119.00,43.39 121.18,39.14 126.92,35.27 C129.60,33.47 131.68,33.00 137.00,33.00 C144.33,33.00 148.41,34.92 152.34,40.24 C154.50,43.14 155.77,52.81 154.60,57.45 C153.72,60.98 148.14,67.04 144.30,68.65 C140.56,70.21 133.63,70.32 130.00,68.88 Z" fill="rgb(251,252,251)"/>
</g>
</svg>